<svg width="32" height="32" viewBox="0 0 32 32" fill="none" xmlns="http://www.w3.org/2000/svg">
<g clip-path="url(#clip0_146_2)">
<path d="M16.225 14.1071C16.1983 14.073 16.1641 14.0454 16.1251 14.0264C16.0862 14.0074 16.0434 13.9975 16 13.9975C15.9566 13.9975 15.9138 14.0074 15.8749 14.0264C15.8359 14.0454 15.8017 14.073 15.775 14.1071L11.775 19.1679C11.742 19.21 11.7216 19.2605 11.716 19.3137C11.7103 19.3669 11.7198 19.4206 11.7433 19.4686C11.7668 19.5167 11.8033 19.5572 11.8487 19.5855C11.8941 19.6137 11.9465 19.6287 12 19.6286H14.6393V28.2857C14.6393 28.4429 14.7679 28.5714 14.925 28.5714H17.0679C17.225 28.5714 17.3536 28.4429 17.3536 28.2857V19.6321H20C20.2393 19.6321 20.3714 19.3571 20.225 19.1714L16.225 14.1071Z" fill="#04BEBE"/>
<path d="M26.6929 10.8107C25.0571 6.49643 20.8893 3.42857 16.0071 3.42857C11.125 3.42857 6.95714 6.49286 5.32143 10.8071C2.26071 11.6107 0 14.4 0 17.7143C0 21.6607 3.19643 24.8571 7.13929 24.8571H8.57143C8.72857 24.8571 8.85714 24.7286 8.85714 24.5714V22.4286C8.85714 22.2714 8.72857 22.1429 8.57143 22.1429H7.13929C5.93571 22.1429 4.80357 21.6643 3.96071 20.7964C3.12143 19.9321 2.675 18.7679 2.71429 17.5607C2.74643 16.6179 3.06786 15.7321 3.65 14.9857C4.24643 14.225 5.08214 13.6714 6.01071 13.425L7.36429 13.0714L7.86071 11.7643C8.16786 10.95 8.59643 10.1893 9.13571 9.5C9.66811 8.81682 10.2988 8.21625 11.0071 7.71786C12.475 6.68572 14.2036 6.13929 16.0071 6.13929C17.8107 6.13929 19.5393 6.68572 21.0071 7.71786C21.7179 8.21786 22.3464 8.81786 22.8786 9.5C23.4179 10.1893 23.8464 10.9536 24.1536 11.7643L24.6464 13.0679L25.9964 13.425C27.9321 13.9464 29.2857 15.7071 29.2857 17.7143C29.2857 18.8964 28.825 20.0107 27.9893 20.8464C27.5794 21.2587 27.0919 21.5855 26.5549 21.8081C26.0178 22.0306 25.442 22.1444 24.8607 22.1429H23.4286C23.2714 22.1429 23.1429 22.2714 23.1429 22.4286V24.5714C23.1429 24.7286 23.2714 24.8571 23.4286 24.8571H24.8607C28.8036 24.8571 32 21.6607 32 17.7143C32 14.4036 29.7464 11.6179 26.6929 10.8107Z" fill="#04BEBE"/>
</g>
<defs>
<clipPath id="clip0_146_2">
<rect width="32" height="32" fill="white"/>
</clipPath>
</defs>
</svg>
