<svg width="26" height="32" viewBox="0 0 26 32" fill="none" xmlns="http://www.w3.org/2000/svg">
<path d="M24.8071 8.02143L17.1214 0.335714C16.9071 0.121429 16.6179 0 16.3143 0H1.14286C0.510714 0 0 0.510714 0 1.14286V30.8571C0 31.4893 0.510714 32 1.14286 32H24C24.6321 32 25.1429 31.4893 25.1429 30.8571V8.83214C25.1429 8.52857 25.0214 8.23571 24.8071 8.02143ZM22.5071 9.35714H15.7857V2.63571L22.5071 9.35714ZM22.5714 29.4286H2.57143V2.57143H13.3571V10.2857C13.3571 10.6835 13.5152 11.0651 13.7965 11.3464C14.0778 11.6277 14.4593 11.7857 14.8571 11.7857H22.5714V29.4286ZM12.6464 18.4321L10.4393 14.775C10.3607 14.6464 10.2214 14.5679 10.0714 14.5679H8.7C8.61786 14.5679 8.53929 14.5893 8.47143 14.6357C8.27143 14.7607 8.21071 15.025 8.33929 15.2286L11.2786 19.8857L8.3 24.6286C8.25953 24.6936 8.23718 24.7683 8.23525 24.8449C8.23332 24.9215 8.25189 24.9972 8.28903 25.0642C8.32617 25.1312 8.38055 25.1871 8.44652 25.226C8.51249 25.265 8.58767 25.2856 8.66429 25.2857H9.89643C10.0464 25.2857 10.1821 25.2071 10.2607 25.0821L12.5 21.4571L14.725 25.0786C14.8036 25.2071 14.9429 25.2821 15.0893 25.2821H16.4286C16.5107 25.2821 16.5893 25.2571 16.6607 25.2143C16.8607 25.0857 16.9179 24.8214 16.7893 24.6214L13.7893 19.9643L16.8357 15.2321C16.877 15.1673 16.9001 15.0926 16.9026 15.0157C16.9052 14.9389 16.8871 14.8628 16.8503 14.7954C16.8134 14.7279 16.7592 14.6716 16.6932 14.6322C16.6272 14.5928 16.5519 14.5718 16.475 14.5714H15.2C15.05 14.5714 14.9107 14.65 14.8321 14.7786L12.6464 18.4321Z" fill="black"/>
</svg>
